<svg width="48" height="48" viewBox="0 0 48 48" fill="none" xmlns="http://www.w3.org/2000/svg">
<path d="M24.5 8L25 7.99991C24.9999 7.7238 24.7761 7.5 24.5 7.5V8ZM17.8367 13.1209L18.0904 13.5518L18.0904 13.5518L17.8367 13.1209ZM18.4379 12.7883L18.2075 12.3445L18.2075 12.3445L18.4379 12.7883ZM14.7869 13.0216L15.0286 12.584L15.0286 12.584L14.7869 13.0216ZM15.1738 13.2353L14.932 13.673L14.932 13.673L15.1738 13.2353ZM9.31048 17.6674L8.8824 17.409L8.8824 17.409L9.31048 17.6674ZM11.6251 13.8321L12.0532 14.0905L12.0532 14.0905L11.6251 13.8321ZM10.5462 20.9067L10.7879 20.469L10.7879 20.469L10.5462 20.9067ZM10.1577 20.6921L9.91594 21.1298L9.91594 21.1298L10.1577 20.6921ZM11.7744 23.1659L11.2746 23.1518L11.2746 23.1518L11.7744 23.1659ZM11.7745 23.8348L11.2747 23.8488L11.2747 23.8489L11.7745 23.8348ZM10.1592 26.3079L10.4009 26.7455L10.4009 26.7455L10.1592 26.3079ZM10.5462 26.0941L10.3045 25.6564L10.3045 25.6564L10.5462 26.0941ZM11.6266 33.1679L12.0547 32.9095L12.0547 32.9095L11.6266 33.1679ZM9.31197 29.3326L8.88389 29.591L8.88389 29.591L9.31197 29.3326ZM15.1745 33.7651L15.4162 34.2028L15.4162 34.2028L15.1745 33.7651ZM14.7884 33.9784L14.5466 33.5407L14.5466 33.5407L14.7884 33.9784ZM18.4379 34.2117L18.6682 33.768L18.6682 33.768L18.4379 34.2117ZM17.8373 33.8794L17.5837 34.3103L17.5837 34.3103L17.8373 33.8794ZM24.5 39V39.5C24.7761 39.5 25 39.2762 25 39.0001L24.5 39ZM24.5014 29.0357L25.0014 29.0358C25.0015 28.9032 24.9488 28.776 24.855 28.6822C24.7613 28.5884 24.6341 28.5357 24.5014 28.5357V29.0357ZM24.5014 17.9643V18.4643C24.6341 18.4643 24.7612 18.4116 24.855 18.3178C24.9488 18.224 25.0015 18.0968 25.0014 17.9642L24.5014 17.9643ZM28.5 23.5C28.5 23.2239 28.2761 23 28 23C27.7239 23 27.5 23.2239 27.5 23.5H28.5ZM24.25 20.25C24.5261 20.25 24.75 20.0261 24.75 19.75C24.75 19.4739 24.5261 19.25 24.25 19.25V20.25ZM16.0063 24.2421C16.0674 24.5114 16.3352 24.6802 16.6045 24.6191C16.8738 24.5579 17.0426 24.2901 16.9815 24.0208L16.0063 24.2421ZM21.9371 16.4872C22.2064 16.4261 22.3751 16.1583 22.314 15.889C22.2529 15.6197 21.9851 15.4509 21.7158 15.512L21.9371 16.4872ZM30.5 12L30.4985 12.5C30.6226 12.5004 30.7423 12.4546 30.8345 12.3716L30.5 12ZM31.5 16.5V17C31.6082 17 31.7135 16.9649 31.8 16.9L31.5 16.5ZM35.5 25C35.7761 25 36 24.7761 36 24.5C36 24.2239 35.7761 24 35.5 24V25ZM30.5 35.5L30.8293 35.1237C30.7381 35.044 30.6211 35 30.5 35V35.5ZM31.5 31L31.8 30.6C31.7135 30.5351 31.6082 30.5 31.5 30.5V31ZM22.1854 8.5H24.5V7.5H22.1854V8.5ZM20.3708 10.6392V10.2143H19.3708V10.6392H20.3708ZM18.0904 13.5518C18.2797 13.4404 18.4723 13.3337 18.6682 13.232L18.2075 12.3445C17.9958 12.4544 17.7876 12.5696 17.583 12.6901L18.0904 13.5518ZM14.5451 13.4593L14.932 13.673L15.4155 12.7976L15.0286 12.584L14.5451 13.4593ZM9.73857 17.9257L12.0532 14.0905L11.197 13.5738L8.8824 17.409L9.73857 17.9257ZM10.7879 20.469L10.3994 20.2545L9.91594 21.1298L10.3044 21.3444L10.7879 20.469ZM12.2697 23.5C12.2697 23.393 12.2712 23.2863 12.2742 23.18L11.2746 23.1518C11.2714 23.2675 11.2697 23.3836 11.2697 23.5H12.2697ZM12.2743 23.8207C12.2712 23.7141 12.2697 23.6073 12.2697 23.5H11.2697C11.2697 23.6166 11.2714 23.7329 11.2747 23.8488L12.2743 23.8207ZM10.4009 26.7455L10.788 26.5318L10.3045 25.6564L9.91743 25.8702L10.4009 26.7455ZM12.0547 32.9095L9.74006 29.0743L8.88389 29.591L11.1985 33.4262L12.0547 32.9095ZM14.9327 33.3274L14.5466 33.5407L15.0301 34.416L15.4162 34.2028L14.9327 33.3274ZM18.6682 33.768C18.4725 33.6664 18.28 33.5598 18.091 33.4485L17.5837 34.3103C17.788 34.4306 17.9961 34.5457 18.2076 34.6555L18.6682 33.768ZM20.3708 36.7857V36.3608H19.3708V36.7857H20.3708ZM24.5 38.5H22.1854V39.5H24.5V38.5ZM19.3708 36.7857C19.3708 38.3054 20.6521 39.5 22.1854 39.5V38.5C21.1621 38.5 20.3708 37.7118 20.3708 36.7857H19.3708ZM18.2076 34.6555C18.9204 35.0255 19.3708 35.6771 19.3708 36.3608H20.3708C20.3708 35.2204 19.6313 34.2678 18.6682 33.768L18.2076 34.6555ZM11.1985 33.4262C11.9815 34.7237 13.6965 35.1526 15.0301 34.416L14.5466 33.5407C13.6661 34.027 12.5499 33.7302 12.0547 32.9095L11.1985 33.4262ZM9.91743 25.8702C8.57181 26.6134 8.09248 28.2796 8.88389 29.591L9.74006 29.0743C9.25315 28.2675 9.53243 27.2252 10.4009 26.7455L9.91743 25.8702ZM11.2747 23.8489C11.2959 24.6008 10.9424 25.304 10.3045 25.6564L10.788 26.5318C11.7998 25.9729 12.3044 24.8905 12.2743 23.8207L11.2747 23.8489ZM10.3044 21.3444C10.9424 21.6967 11.2958 22.3999 11.2746 23.1518L12.2742 23.18C12.3044 22.1101 11.7997 21.0279 10.7879 20.469L10.3044 21.3444ZM8.8824 17.409C8.09099 18.7204 8.57031 20.3866 9.91594 21.1298L10.3994 20.2545C9.53094 19.7748 9.25166 18.7325 9.73857 17.9257L8.8824 17.409ZM15.0286 12.584C13.695 11.8474 11.98 12.2763 11.197 13.5738L12.0532 14.0905C12.5484 13.2698 13.6646 12.973 14.5451 13.4593L15.0286 12.584ZM17.583 12.6901C16.8939 13.0958 16.0597 13.1534 15.4155 12.7976L14.932 13.673C15.9403 14.2299 17.1546 14.1028 18.0904 13.5518L17.583 12.6901ZM19.3708 10.6392C19.3708 11.3229 18.9204 11.9745 18.2075 12.3445L18.6682 13.232C19.6313 12.7322 20.3708 11.7796 20.3708 10.6392H19.3708ZM15.4162 34.2028C16.0603 33.847 16.8945 33.9046 17.5837 34.3103L18.091 33.4485C17.1552 32.8976 15.941 32.7705 14.9327 33.3274L15.4162 34.2028ZM22.1854 7.5C20.6521 7.5 19.3708 8.69458 19.3708 10.2143H20.3708C20.3708 9.28816 21.1621 8.5 22.1854 8.5V7.5ZM24.5014 28.5357C21.5607 28.5357 19.215 26.2605 19.215 23.5H18.215C18.215 26.8541 21.0506 29.5357 24.5014 29.5357V28.5357ZM19.215 23.5C19.215 20.7395 21.5607 18.4643 24.5014 18.4643V17.4643C21.0506 17.4643 18.215 20.1459 18.215 23.5H19.215ZM24.0014 29.0356L24 38.9999L25 39.0001L25.0014 29.0358L24.0014 29.0356ZM27.5 23.5C27.5 25.2949 26.0449 26.75 24.25 26.75V27.75C26.5972 27.75 28.5 25.8472 28.5 23.5H27.5ZM24.25 26.75C22.4551 26.75 21 25.2949 21 23.5H20C20 25.8472 21.9028 27.75 24.25 27.75V26.75ZM21 23.5C21 21.7051 22.4551 20.25 24.25 20.25V19.25C21.9028 19.25 20 21.1528 20 23.5H21ZM16.9815 24.0208C16.2213 20.6712 18.4194 17.2855 21.9371 16.4872L21.7158 15.512C17.6932 16.4249 15.1163 20.3208 16.0063 24.2421L16.9815 24.0208ZM24.4992 12.4821L30.4985 12.5L30.5015 11.5L24.5022 11.4821L24.4992 12.4821ZM30.8345 12.3716L34.5666 9.01218L33.8975 8.26895L30.1655 11.6284L30.8345 12.3716ZM25 17H31.5V16H25V17ZM31.8 16.9L37.8 12.4L37.2 11.6L31.2 16.1L31.8 16.9ZM28 25H35.5V24H28V25ZM24.5 36H30.5V35H24.5V36ZM30.1707 35.8763L34.1707 39.3763L34.8293 38.6237L30.8293 35.1237L30.1707 35.8763ZM24.5 31.5H31.5V30.5H24.5V31.5ZM31.2 31.4L37.2 35.9L37.8 35.1L31.8 30.6L31.2 31.4ZM35.5 8C35.5 8.27614 35.2761 8.5 35 8.5V9.5C35.8284 9.5 36.5 8.82843 36.5 8H35.5ZM35 8.5C34.7239 8.5 34.5 8.27614 34.5 8H33.5C33.5 8.82843 34.1716 9.5 35 9.5V8.5ZM34.5 8C34.5 7.72386 34.7239 7.5 35 7.5V6.5C34.1716 6.5 33.5 7.17157 33.5 8H34.5ZM35 7.5C35.2761 7.5 35.5 7.72386 35.5 8H36.5C36.5 7.17157 35.8284 6.5 35 6.5V7.5ZM38.75 11.25C38.75 11.5261 38.5261 11.75 38.25 11.75V12.75C39.0784 12.75 39.75 12.0784 39.75 11.25H38.75ZM38.25 11.75C37.9739 11.75 37.75 11.5261 37.75 11.25H36.75C36.75 12.0784 37.4216 12.75 38.25 12.75V11.75ZM37.75 11.25C37.75 10.9739 37.9739 10.75 38.25 10.75V9.75C37.4216 9.75 36.75 10.4216 36.75 11.25H37.75ZM38.25 10.75C38.5261 10.75 38.75 10.9739 38.75 11.25H39.75C39.75 10.4216 39.0784 9.75 38.25 9.75V10.75ZM37.5 24.5C37.5 24.7761 37.2761 25 37 25V26C37.8284 26 38.5 25.3284 38.5 24.5H37.5ZM37 25C36.7239 25 36.5 24.7761 36.5 24.5H35.5C35.5 25.3284 36.1716 26 37 26V25ZM36.5 24.5C36.5 24.2239 36.7239 24 37 24V23C36.1716 23 35.5 23.6716 35.5 24.5H36.5ZM37 24C37.2761 24 37.5 24.2239 37.5 24.5H38.5C38.5 23.6716 37.8284 23 37 23V24ZM38.5 36C38.5 36.2761 38.2761 36.5 38 36.5V37.5C38.8284 37.5 39.5 36.8284 39.5 36H38.5ZM38 36.5C37.7239 36.5 37.5 36.2761 37.5 36H36.5C36.5 36.8284 37.1716 37.5 38 37.5V36.5ZM37.5 36C37.5 35.7239 37.7239 35.5 38 35.5V34.5C37.1716 34.5 36.5 35.1716 36.5 36H37.5ZM38 35.5C38.2761 35.5 38.5 35.7239 38.5 36H39.5C39.5 35.1716 38.8284 34.5 38 34.5V35.5ZM36 39.75C36 40.0261 35.7761 40.25 35.5 40.25V41.25C36.3284 41.25 37 40.5784 37 39.75H36ZM35.5 40.25C35.2239 40.25 35 40.0261 35 39.75H34C34 40.5784 34.6716 41.25 35.5 41.25V40.25ZM35 39.75C35 39.4739 35.2239 39.25 35.5 39.25V38.25C34.6716 38.25 34 38.9216 34 39.75H35ZM35.5 39.25C35.7761 39.25 36 39.4739 36 39.75H37C37 38.9216 36.3284 38.25 35.5 38.25V39.25ZM24 8.00009L24.0007 11.9822L25.0007 11.9821L25 7.99991L24 8.00009ZM24.0007 11.9822L24.0014 17.9643L25.0014 17.9642L25.0007 11.9821L24.0007 11.9822Z" fill="url(#paint0_linear_375_73)"/>
<defs>
<linearGradient id="paint0_linear_375_73" x1="24.125" y1="8" x2="24.125" y2="39.75" gradientUnits="userSpaceOnUse">
<stop stop-color="#01AED1"/>
<stop offset="1" stop-color="#6A55A4"/>
</linearGradient>
</defs>
</svg>
