<svg width="48" height="48" viewBox="0 0 48 48" fill="none" xmlns="http://www.w3.org/2000/svg">
<path d="M13 28V27.5C12.8039 27.5 12.626 27.6146 12.5448 27.7931L13 28ZM36 28L36.4552 27.7931C36.374 27.6146 36.1961 27.5 36 27.5V28ZM41 39V39.5C41.17 39.5 41.3284 39.4136 41.4204 39.2707C41.5124 39.1278 41.5255 38.9479 41.4552 38.7931L41 39ZM8 39L7.54482 38.7931C7.47447 38.9479 7.48758 39.1278 7.57961 39.2707C7.67165 39.4136 7.83 39.5 8 39.5V39ZM14.9677 31V30.5C14.7623 30.5 14.5777 30.6257 14.5025 30.8169L14.9677 31ZM34.0323 31L34.4975 30.8169C34.4223 30.6257 34.2377 30.5 34.0323 30.5V31ZM36 36V36.5C36.1654 36.5 36.3201 36.4182 36.4133 36.2815C36.5064 36.1447 36.5258 35.9708 36.4653 35.8169L36 36ZM13 36L12.5347 35.8169C12.4742 35.9708 12.4936 36.1447 12.5867 36.2815C12.6799 36.4182 12.8346 36.5 13 36.5V36ZM24 33.5C24 33.7761 24.2239 34 24.5 34C24.7761 34 25 33.7761 25 33.5H24ZM27 33.5C27 33.7761 27.2239 34 27.5 34C27.7761 34 28 33.7761 28 33.5H27ZM27.5 19.5L27.1746 19.1204C27.0638 19.2154 27 19.354 27 19.5H27.5ZM31 16.5L31.3254 16.8796C31.4362 16.7846 31.5 16.646 31.5 16.5H31ZM30.5 33.5C30.5 33.7761 30.7239 34 31 34C31.2761 34 31.5 33.7761 31.5 33.5H30.5ZM31 24L30.6609 23.6326C30.5583 23.7273 30.5 23.8605 30.5 24H31ZM37.5 18L37.8391 18.3674C37.9417 18.2727 38 18.1395 38 18H37.5ZM21 33.5C21 33.7761 21.2239 34 21.5 34C21.7761 34 22 33.7761 22 33.5H21ZM21.5 25H22C22 24.854 21.9362 24.7154 21.8254 24.6204L21.5 25ZM14.5 19H14C14 19.146 14.0638 19.2846 14.1746 19.3796L14.5 19ZM19.5 17L19.8254 17.3796C19.9362 17.2846 20 17.146 20 17H19.5ZM18 33.5C18 33.7761 18.2239 34 18.5 34C18.7761 34 19 33.7761 19 33.5H18ZM18.5 26H19C19 25.855 18.937 25.7171 18.8275 25.6222L18.5 26ZM11 19.5H10.5C10.5 19.645 10.563 19.7829 10.6725 19.8778L11 19.5ZM35 23.5V23C34.8789 23 34.7619 23.044 34.6707 23.1237L35 23.5ZM22 21H21.5C21.5 21.1519 21.569 21.2955 21.6877 21.3904L22 21ZM13 28.5H36V27.5H13V28.5ZM35.5448 28.2069L40.5448 39.2069L41.4552 38.7931L36.4552 27.7931L35.5448 28.2069ZM41 38.5H8V39.5H41V38.5ZM8.45518 39.2069L13.4552 28.2069L12.5448 27.7931L7.54482 38.7931L8.45518 39.2069ZM14.9677 31.5H34.0323V30.5H14.9677V31.5ZM33.567 31.1831L35.5347 36.1831L36.4653 35.8169L34.4975 30.8169L33.567 31.1831ZM36 35.5H13V36.5H36V35.5ZM13.4653 36.1831L15.433 31.1831L14.5025 30.8169L12.5347 35.8169L13.4653 36.1831ZM25 33.5V11H24V33.5H25ZM28 33.5V19.5H27V33.5H28ZM27.8254 19.8796L31.3254 16.8796L30.6746 16.1204L27.1746 19.1204L27.8254 19.8796ZM31.5 16.5V13H30.5V16.5H31.5ZM31.5 33.5V24H30.5V33.5H31.5ZM31.3391 24.3674L37.8391 18.3674L37.1609 17.6326L30.6609 23.6326L31.3391 24.3674ZM38 18V11H37V18H38ZM22 33.5V25H21V33.5H22ZM21.8254 24.6204L14.8254 18.6204L14.1746 19.3796L21.1746 25.3796L21.8254 24.6204ZM15 19V16H14V19H15ZM16.3254 20.3796L19.8254 17.3796L19.1746 16.6204L15.6746 19.6204L16.3254 20.3796ZM20 17V13.5H19V17H20ZM19 33.5V26H18V33.5H19ZM18.8275 25.6222L11.3275 19.1222L10.6725 19.8778L18.1725 26.3778L18.8275 25.6222ZM11.5 19.5V11.5H10.5V19.5H11.5ZM31.3293 27.3763L35.3293 23.8763L34.6707 23.1237L30.6707 26.6237L31.3293 27.3763ZM35 24H37V23H35V24ZM11.5 11C11.5 11.2761 11.2761 11.5 11 11.5V12.5C11.8284 12.5 12.5 11.8284 12.5 11H11.5ZM11 11.5C10.7239 11.5 10.5 11.2761 10.5 11H9.5C9.5 11.8284 10.1716 12.5 11 12.5V11.5ZM10.5 11C10.5 10.7239 10.7239 10.5 11 10.5V9.5C10.1716 9.5 9.5 10.1716 9.5 11H10.5ZM11 10.5C11.2761 10.5 11.5 10.7239 11.5 11H12.5C12.5 10.1716 11.8284 9.5 11 9.5V10.5ZM25 10C25 10.2761 24.7761 10.5 24.5 10.5V11.5C25.3284 11.5 26 10.8284 26 10H25ZM24.5 10.5C24.2239 10.5 24 10.2761 24 10H23C23 10.8284 23.6716 11.5 24.5 11.5V10.5ZM24 10C24 9.72386 24.2239 9.5 24.5 9.5V8.5C23.6716 8.5 23 9.17157 23 10H24ZM24.5 9.5C24.7761 9.5 25 9.72386 25 10H26C26 9.17157 25.3284 8.5 24.5 8.5V9.5ZM31.5 12C31.5 12.2761 31.2761 12.5 31 12.5V13.5C31.8284 13.5 32.5 12.8284 32.5 12H31.5ZM31 12.5C30.7239 12.5 30.5 12.2761 30.5 12H29.5C29.5 12.8284 30.1716 13.5 31 13.5V12.5ZM30.5 12C30.5 11.7239 30.7239 11.5 31 11.5V10.5C30.1716 10.5 29.5 11.1716 29.5 12H30.5ZM31 11.5C31.2761 11.5 31.5 11.7239 31.5 12H32.5C32.5 11.1716 31.8284 10.5 31 10.5V11.5ZM38 10C38 10.2761 37.7761 10.5 37.5 10.5V11.5C38.3284 11.5 39 10.8284 39 10H38ZM37.5 10.5C37.2239 10.5 37 10.2761 37 10H36C36 10.8284 36.6716 11.5 37.5 11.5V10.5ZM37 10C37 9.72386 37.2239 9.5 37.5 9.5V8.5C36.6716 8.5 36 9.17157 36 10H37ZM37.5 9.5C37.7761 9.5 38 9.72386 38 10H39C39 9.17157 38.3284 8.5 37.5 8.5V9.5ZM38.5 23.5C38.5 23.7761 38.2761 24 38 24V25C38.8284 25 39.5 24.3284 39.5 23.5H38.5ZM38 24C37.7239 24 37.5 23.7761 37.5 23.5H36.5C36.5 24.3284 37.1716 25 38 25V24ZM37.5 23.5C37.5 23.2239 37.7239 23 38 23V22C37.1716 22 36.5 22.6716 36.5 23.5H37.5ZM38 23C38.2761 23 38.5 23.2239 38.5 23.5H39.5C39.5 22.6716 38.8284 22 38 22V23ZM20 13C20 13.2761 19.7761 13.5 19.5 13.5V14.5C20.3284 14.5 21 13.8284 21 13H20ZM19.5 13.5C19.2239 13.5 19 13.2761 19 13H18C18 13.8284 18.6716 14.5 19.5 14.5V13.5ZM19 13C19 12.7239 19.2239 12.5 19.5 12.5V11.5C18.6716 11.5 18 12.1716 18 13H19ZM19.5 12.5C19.7761 12.5 20 12.7239 20 13H21C21 12.1716 20.3284 11.5 19.5 11.5V12.5ZM15 15C15 15.2761 14.7761 15.5 14.5 15.5V16.5C15.3284 16.5 16 15.8284 16 15H15ZM14.5 15.5C14.2239 15.5 14 15.2761 14 15H13C13 15.8284 13.6716 16.5 14.5 16.5V15.5ZM14 15C14 14.7239 14.2239 14.5 14.5 14.5V13.5C13.6716 13.5 13 14.1716 13 15H14ZM14.5 14.5C14.7761 14.5 15 14.7239 15 15H16C16 14.1716 15.3284 13.5 14.5 13.5V14.5ZM24.8123 22.6096L22.3123 20.6096L21.6877 21.3904L24.1877 23.3904L24.8123 22.6096ZM22.5 21V17H21.5V21H22.5ZM14.2 22.1L12.2 23.6L12.8 24.4L14.8 22.9L14.2 22.1ZM12 24.5C12 24.7761 11.7761 25 11.5 25V26C12.3284 26 13 25.3284 13 24.5H12ZM11.5 25C11.2239 25 11 24.7761 11 24.5H10C10 25.3284 10.6716 26 11.5 26V25ZM11 24.5C11 24.2239 11.2239 24 11.5 24V23C10.6716 23 10 23.6716 10 24.5H11ZM11.5 24C11.7761 24 12 24.2239 12 24.5H13C13 23.6716 12.3284 23 11.5 23V24ZM22.5 16C22.5 16.2761 22.2761 16.5 22 16.5V17.5C22.8284 17.5 23.5 16.8284 23.5 16H22.5ZM22 16.5C21.7239 16.5 21.5 16.2761 21.5 16H20.5C20.5 16.8284 21.1716 17.5 22 17.5V16.5ZM21.5 16C21.5 15.7239 21.7239 15.5 22 15.5V14.5C21.1716 14.5 20.5 15.1716 20.5 16H21.5ZM22 15.5C22.2761 15.5 22.5 15.7239 22.5 16H23.5C23.5 15.1716 22.8284 14.5 22 14.5V15.5Z" fill="url(#paint0_linear_376_90)"/>
<defs>
<linearGradient id="paint0_linear_376_90" x1="24.5" y1="9" x2="24.5" y2="39" gradientUnits="userSpaceOnUse">
<stop stop-color="#01AED1"/>
<stop offset="1" stop-color="#6A55A4"/>
</linearGradient>
</defs>
</svg>
