<svg width="48" height="48" viewBox="0 0 48 48" fill="none" xmlns="http://www.w3.org/2000/svg">
<path d="M8 13C7.72386 13 7.5 13.2239 7.5 13.5C7.5 13.7761 7.72386 14 8 14V13ZM14.5502 30.0909L14.3038 30.5259C14.4191 30.5913 14.5558 30.6081 14.6836 30.5727C14.8114 30.5374 14.9199 30.4527 14.9852 30.3373L14.5502 30.0909ZM17.9955 17L18.4955 16.9997C18.4954 16.8671 18.4427 16.7399 18.3489 16.6462C18.255 16.5525 18.1278 16.4999 17.9952 16.5L17.9955 17ZM24.7506 25.852L25.2327 25.9843C25.2678 25.8564 25.2507 25.7199 25.185 25.6046C25.1194 25.4894 25.0107 25.4049 24.8828 25.3699L24.7506 25.852ZM14.4866 30.0544L14.0541 29.8034C13.9875 29.9181 13.9693 30.0546 14.0033 30.1827C14.0374 30.3109 14.1209 30.4203 14.2356 30.4869L14.4866 30.0544ZM20 15L20 14.5C19.8674 14.5 19.7402 14.5527 19.6464 14.6464C19.5527 14.7402 19.5 14.8674 19.5 15H20ZM26.7682 23.7864L26.6406 24.2698C26.7688 24.3037 26.9053 24.2852 27.0198 24.2184C27.1344 24.1517 27.2178 24.0422 27.2517 23.914L26.7682 23.7864ZM20 22H19.5C19.5 22.227 19.6529 22.4255 19.8724 22.4834L20 22ZM30 18.5C29.7239 18.5 29.5 18.7239 29.5 19C29.5 19.2761 29.7239 19.5 30 19.5V18.5ZM37 19.5C37.2761 19.5 37.5 19.2761 37.5 19C37.5 18.7239 37.2761 18.5 37 18.5V19.5ZM30 16.5C29.7239 16.5 29.5 16.7239 29.5 17C29.5 17.2761 29.7239 17.5 30 17.5V16.5ZM37 17.5C37.2761 17.5 37.5 17.2761 37.5 17C37.5 16.7239 37.2761 16.5 37 16.5V17.5ZM31 28H31.5C31.5 27.7239 31.2761 27.5 31 27.5V28ZM26.8235 34.5L27.0777 34.0694C26.8909 33.9592 26.6544 33.9819 26.4921 34.1257L26.8235 34.5ZM28.9412 35.75L28.687 36.1806C28.8883 36.2994 29.1451 36.2629 29.3053 36.0927L28.9412 35.75ZM32.4706 32L32.8791 31.7117C32.7925 31.589 32.6554 31.5118 32.5057 31.5012C32.3559 31.4907 32.2094 31.548 32.1065 31.6573L32.4706 32ZM30 20.5C29.7239 20.5 29.5 20.7239 29.5 21C29.5 21.2761 29.7239 21.5 30 21.5V20.5ZM37 21.5C37.2761 21.5 37.5 21.2761 37.5 21C37.5 20.7239 37.2761 20.5 37 20.5V21.5ZM10 9.5H38V8.5H10V9.5ZM39.5 11V33H40.5V11H39.5ZM8.5 33V11H7.5V33H8.5ZM38 34.5H36.5V35.5H38V34.5ZM23.6885 34.5H10V35.5H23.6885V34.5ZM7.5 33C7.5 34.3807 8.61929 35.5 10 35.5V34.5C9.17157 34.5 8.5 33.8284 8.5 33H7.5ZM39.5 33C39.5 33.8284 38.8284 34.5 38 34.5V35.5C39.3807 35.5 40.5 34.3807 40.5 33H39.5ZM38 9.5C38.8284 9.5 39.5 10.1716 39.5 11H40.5C40.5 9.61929 39.3807 8.5 38 8.5V9.5ZM10 8.5C8.61929 8.5 7.5 9.61929 7.5 11H8.5C8.5 10.1716 9.17157 9.5 10 9.5V8.5ZM8 14H40V13H8V14ZM14.7966 29.6558C13.5479 28.9485 12.5683 27.8479 12.0107 26.5255L11.0893 26.9141C11.7327 28.4399 12.8629 29.7099 14.3038 30.5259L14.7966 29.6558ZM12.0107 26.5255C11.4531 25.2032 11.3488 23.7335 11.7141 22.3456L10.747 22.0911C10.3255 23.6925 10.4459 25.3883 11.0893 26.9141L12.0107 26.5255ZM11.7141 22.3456C12.0793 20.9578 12.8936 19.7298 14.0299 18.8533L13.4192 18.0615C12.108 19.0729 11.1685 20.4897 10.747 22.0911L11.7141 22.3456ZM14.0299 18.8533C15.1663 17.9768 16.5607 17.5009 17.9958 17.5L17.9952 16.5C16.3393 16.5011 14.7303 17.0501 13.4192 18.0615L14.0299 18.8533ZM17.4955 17.0003L17.5 24.0003L18.5 23.9997L18.4955 16.9997L17.4955 17.0003ZM17.5649 23.7536L14.1151 29.8445L14.9852 30.3373L18.4351 24.2464L17.5649 23.7536ZM24.2684 25.7198C24.0051 26.6793 23.5251 27.5655 22.8653 28.3103L23.6139 28.9734C24.3751 28.1141 24.929 27.0915 25.2327 25.9843L24.2684 25.7198ZM22.8653 28.3103C22.2056 29.055 21.3836 29.6384 20.4628 30.0153L20.8417 30.9408C21.9042 30.5058 22.8526 29.8327 23.6139 28.9734L22.8653 28.3103ZM20.4628 30.0153C19.5421 30.3923 18.547 30.5529 17.5544 30.4847L17.4859 31.4824C18.6312 31.5611 19.7793 31.3758 20.8417 30.9408L20.4628 30.0153ZM17.5544 30.4847C16.5618 30.4165 15.5981 30.1213 14.7375 29.6219L14.2356 30.4869C15.2286 31.0631 16.3405 31.4037 17.4859 31.4824L17.5544 30.4847ZM14.919 30.3054L18.4325 24.251L17.5675 23.749L14.0541 29.8034L14.919 30.3054ZM17.8677 24.4822L24.6183 26.3342L24.8828 25.3699L18.1323 23.5178L17.8677 24.4822ZM20 15.5C20.995 15.5 21.9766 15.7284 22.8694 16.1676L23.3109 15.2703C22.2807 14.7636 21.148 14.5 20 14.5L20 15.5ZM22.8694 16.1676C23.7622 16.6069 24.5422 17.2452 25.1494 18.0334L25.9416 17.4231C25.241 16.5137 24.341 15.7771 23.3109 15.2703L22.8694 16.1676ZM25.1494 18.0334C25.7565 18.8216 26.1747 19.7387 26.3715 20.714L27.3517 20.5161C27.1246 19.3908 26.6422 18.3326 25.9416 17.4231L25.1494 18.0334ZM26.3715 20.714C26.5684 21.6893 26.5387 22.6968 26.2848 23.6588L27.2517 23.914C27.5446 22.804 27.5789 21.6415 27.3517 20.5161L26.3715 20.714ZM26.8958 23.3029L20.1276 21.5166L19.8724 22.4834L26.6406 24.2698L26.8958 23.3029ZM20.5 22V15H19.5V22H20.5ZM30 19.5H37V18.5H30V19.5ZM30 17.5H37V16.5H30V17.5ZM25 30.5H35V29.5H25V30.5ZM35.5 31V38H36.5V31H35.5ZM35 38.5H25V39.5H35V38.5ZM24.5 38V31H23.5V38H24.5ZM25 38.5C24.7239 38.5 24.5 38.2761 24.5 38H23.5C23.5 38.8284 24.1716 39.5 25 39.5V38.5ZM35.5 38C35.5 38.2761 35.2761 38.5 35 38.5V39.5C35.8284 39.5 36.5 38.8284 36.5 38H35.5ZM35 30.5C35.2761 30.5 35.5 30.7239 35.5 31H36.5C36.5 30.1716 35.8284 29.5 35 29.5V30.5ZM25 29.5C24.1716 29.5 23.5 30.1716 23.5 31H24.5C24.5 30.7239 24.7239 30.5 25 30.5V29.5ZM31.5 30V28H30.5V30H31.5ZM31 27.5H24V28.5H31V27.5ZM24.3315 37.3743L27.155 34.8743L26.4921 34.1257L23.6685 36.6257L24.3315 37.3743ZM26.5694 34.9306L28.687 36.1806L29.1953 35.3194L27.0777 34.0694L26.5694 34.9306ZM29.3053 36.0927L32.8347 32.3427L32.1065 31.6573L28.5771 35.4073L29.3053 36.0927ZM32.0621 32.2883L35.5915 37.2883L36.4085 36.7117L32.8791 31.7117L32.0621 32.2883ZM30 21.5H37V20.5H30V21.5Z" fill="url(#paint0_linear_376_117)"/>
<defs>
<linearGradient id="paint0_linear_376_117" x1="24" y1="9" x2="24" y2="39" gradientUnits="userSpaceOnUse">
<stop stop-color="#01AED1"/>
<stop offset="1" stop-color="#6A55A4"/>
</linearGradient>
</defs>
</svg>
